REM DIRINDEX 1\2\3,1\2\4,1\2\5,1\2\6
REM DIRNAME cjc157,folder01,folder02,folder03,folder04,folder05
TITLE ""
FILE "155 155.mp3" MP3
  TRACK 01 AUDIO
    TITLE "0:"
    INDEX 01 00:00:00
  TRACK 02 AUDIO
    TITLE "3:cjc157_5691"
    INDEX 01 00:00:09
  TRACK 03 AUDIO
    TITLE "0:"
    INDEX 01 00:01:54
  TRACK 04 AUDIO
    TITLE "4:cjc157_5692"
    INDEX 01 00:02:28
  TRACK 05 AUDIO
    TITLE "0:"
    INDEX 01 00:03:59
  TRACK 06 AUDIO
    TITLE "5:cjc157_5693"
    INDEX 01 00:04:29
  TRACK 07 AUDIO
    TITLE "0:"
    INDEX 01 00:07:29
  TRACK 08 AUDIO
    TITLE "3:cjc157_5694"
    INDEX 01 00:07:74
  TRACK 09 AUDIO
    TITLE "0:"
    INDEX 01 00:09:04
  TRACK 10 AUDIO
    TITLE "4:cjc157_5695"
    INDEX 01 00:09:51
  TRACK 11 AUDIO
    TITLE "0:"
    INDEX 01 00:10:68
  TRACK 12 AUDIO
    TITLE "5:cjc157_5696"
    INDEX 01 00:11:39
  TRACK 13 AUDIO
    TITLE "0:"
    INDEX 01 00:15:19
  TRACK 14 AUDIO
    TITLE "5:cjc157_5697"
    INDEX 01 00:15:66
  TRACK 15 AUDIO
    TITLE "0:"
    INDEX 01 00:18:56
  TRACK 16 AUDIO
    TITLE "3:cjc157_5698"
    INDEX 01 00:19:32
  TRACK 17 AUDIO
    TITLE "0:"
    INDEX 01 00:20:47
  TRACK 18 AUDIO
    TITLE "4:cjc157_5699"
    INDEX 01 00:21:21
  TRACK 19 AUDIO
    TITLE "0:"
    INDEX 01 00:22:34
  TRACK 20 AUDIO
    TITLE "5:cjc157_5700"
    INDEX 01 00:23:06
  TRACK 21 AUDIO
    TITLE "0:"
    INDEX 01 00:26:18
  TRACK 22 AUDIO
    TITLE "5:cjc157_5701"
    INDEX 01 00:26:66
  TRACK 23 AUDIO
    TITLE "0:"
    INDEX 01 00:29:62
  TRACK 24 AUDIO
    TITLE "5:cjc157_5702"
    INDEX 01 00:30:30
  TRACK 25 AUDIO
    TITLE "0:"
    INDEX 01 00:33:15
  TRACK 26 AUDIO
    TITLE "3:cjc157_5703"
    INDEX 01 00:33:62
  TRACK 27 AUDIO
    TITLE "0:"
    INDEX 01 00:35:45
  TRACK 28 AUDIO
    TITLE "4:cjc157_5704"
    INDEX 01 00:36:19
  TRACK 29 AUDIO
    TITLE "0:"
    INDEX 01 00:37:36
  TRACK 30 AUDIO
    TITLE "5:cjc157_5705"
    INDEX 01 00:38:06
  TRACK 31 AUDIO
    TITLE "0:"
    INDEX 01 00:41:44
  TRACK 32 AUDIO
    TITLE "5:cjc157_5706"
    INDEX 01 00:42:18
  TRACK 33 AUDIO
    TITLE "0:"
    INDEX 01 00:46:19
  TRACK 34 AUDIO
    TITLE "3:cjc157_5707"
    INDEX 01 00:46:68
  TRACK 35 AUDIO
    TITLE "0:"
    INDEX 01 00:48:38
  TRACK 36 AUDIO
    TITLE "4:cjc157_5708"
    INDEX 01 00:49:04
  TRACK 37 AUDIO
    TITLE "0:"
    INDEX 01 00:50:31
  TRACK 38 AUDIO
    TITLE "5:cjc157_5709"
    INDEX 01 00:51:01
  TRACK 39 AUDIO
    TITLE "0:"
    INDEX 01 00:53:51
  TRACK 40 AUDIO
    TITLE "5:cjc157_5710"
    INDEX 01 00:54:21
  TRACK 41 AUDIO
    TITLE "0:"
    INDEX 01 00:57:19
  TRACK 42 AUDIO
    TITLE "3:cjc157_5711"
    INDEX 01 00:57:60
  TRACK 43 AUDIO
    TITLE "0:"
    INDEX 01 00:59:14
  TRACK 44 AUDIO
    TITLE "4:cjc157_5712"
    INDEX 01 00:59:63
  TRACK 45 AUDIO
    TITLE "0:"
    INDEX 01 01:01:15
  TRACK 46 AUDIO
    TITLE "5:cjc157_5713"
    INDEX 01 01:01:60
  TRACK 47 AUDIO
    TITLE "0:"
    INDEX 01 01:04:54
  TRACK 48 AUDIO
    TITLE "5:cjc157_5714"
    INDEX 01 01:05:26
  TRACK 49 AUDIO
    TITLE "0:"
    INDEX 01 01:08:25
  TRACK 50 AUDIO
    TITLE "5:cjc157_5715"
    INDEX 01 01:09:01
  TRACK 51 AUDIO
    TITLE "0:"
    INDEX 01 01:12:24
  TRACK 52 AUDIO
    TITLE "3:cjc157_5716"
    INDEX 01 01:12:70
  TRACK 53 AUDIO
    TITLE "0:"
    INDEX 01 01:14:02
  TRACK 54 AUDIO
    TITLE "4:cjc157_5717"
    INDEX 01 01:14:51
  TRACK 55 AUDIO
    TITLE "0:"
    INDEX 01 01:16:12
  TRACK 56 AUDIO
    TITLE "5:cjc157_5718"
    INDEX 01 01:16:60
  TRACK 57 AUDIO
    TITLE "0:"
    INDEX 01 01:20:08
  TRACK 58 AUDIO
    TITLE "3:cjc157_5719"
    INDEX 01 01:20:61
  TRACK 59 AUDIO
    TITLE "0:"
    INDEX 01 01:22:17
  TRACK 60 AUDIO
    TITLE "4:cjc157_5720"
    INDEX 01 01:22:62
  TRACK 61 AUDIO
    TITLE "0:"
    INDEX 01 01:24:16
  TRACK 62 AUDIO
    TITLE "5:cjc157_5721"
    INDEX 01 01:25:02
  TRACK 63 AUDIO
    TITLE "0:"
    INDEX 01 01:28:12
  TRACK 64 AUDIO
    TITLE "3:cjc157_5722"
    INDEX 01 01:28:61
  TRACK 65 AUDIO
    TITLE "0:"
    INDEX 01 01:30:17
  TRACK 66 AUDIO
    TITLE "4:cjc157_5723"
    INDEX 01 01:30:62
  TRACK 67 AUDIO
    TITLE "0:"
    INDEX 01 01:32:25
  TRACK 68 AUDIO
    TITLE "5:cjc157_5724"
    INDEX 01 01:33:01
  TRACK 69 AUDIO
    TITLE "0:"
    INDEX 01 01:36:27
  TRACK 70 AUDIO
    TITLE "3:cjc157_5725"
    INDEX 01 01:36:72
  TRACK 71 AUDIO
    TITLE "0:"
    INDEX 01 01:38:42
  TRACK 72 AUDIO
    TITLE "4:cjc157_5726"
    INDEX 01 01:39:14
  TRACK 73 AUDIO
    TITLE "0:"
    INDEX 01 01:40:46
  TRACK 74 AUDIO
    TITLE "5:cjc157_5727"
    INDEX 01 01:41:22
  TRACK 75 AUDIO
    TITLE "0:"
    INDEX 01 01:45:14
